<svg version="1.1" xmlns="http://www.w3.org/2000/svg" viewBox="0 0 754.6966269295569 586.0884412704359" width="754.6966269295569" height="586.0884412704359">
  <!-- svg-source:excalidraw -->
  
  <defs>
    <style class="style-fonts">
      @font-face {
        font-family: "Virgil";
        src: url("https://excalidraw.com/Virgil.woff2");
      }
      @font-face {
        font-family: "Cascadia";
        src: url("https://excalidraw.com/Cascadia.woff2");
      }
    </style>
  </defs>
  <rect x="0" y="0" width="754.6966269295569" height="586.0884412704359" fill="#ffffff"></rect><g transform="translate(10.99130377339759 302.1788754211732) rotate(0 58 44)"><text x="0" y="31" font-family="Virgil, Segoe UI Emoji" font-size="34.88118897433682px" fill="#000000" text-anchor="start" style="white-space: pre;" direction="ltr">ganas?</text><text x="0" y="75" font-family="Virgil, Segoe UI Emoji" font-size="34.88118897433682px" fill="#000000" text-anchor="start" style="white-space: pre;" direction="ltr"></text></g><g transform="translate(341 532.0884412704359) rotate(0 116 22)"><text x="0" y="31" font-family="Virgil, Segoe UI Emoji" font-size="34.88118897433682px" fill="#000000" text-anchor="start" style="white-space: pre;" direction="ltr">Ukuran tumor</text></g><g transform="translate(10 474.08844127043585) rotate(0 52.5 22)"><text x="0" y="31" font-family="Virgil, Segoe UI Emoji" font-size="34.88118897433682px" fill="#000000" text-anchor="start" style="white-space: pre;" direction="ltr">(no) 0</text></g><g transform="translate(23.57080534019633 157.0669647107723) rotate(0 55 22)"><text x="0" y="31" font-family="Virgil, Segoe UI Emoji" font-size="34.88118897433682px" fill="#000000" text-anchor="start" style="white-space: pre;" direction="ltr">(yes) 1</text></g><g stroke-linecap="round"><g transform="translate(180 533.4105271600064) rotate(0 0.5698755328283482 -218.63015951748469)"><path d="M-0.49 1.15 C-0.56 -71.51, -0.83 -363.61, -0.62 -436.53 M1.46 0.71 C1.79 -72.27, 1.94 -365.23, 1.76 -438.41" stroke="#862e9c" stroke-width="1" fill="none"></path></g><g transform="translate(180 533.4105271600064) rotate(0 0.5698755328283482 -218.63015951748469)"><path d="M13.96 -411.26 C10.02 -417.06, 7.36 -425.62, 1.5 -436.94 M11.4 -409.34 C10.43 -416.94, 7.86 -422.28, 2.39 -439.18" stroke="#862e9c" stroke-width="1" fill="none"></path></g><g transform="translate(180 533.4105271600064) rotate(0 0.5698755328283482 -218.63015951748469)"><path d="M-6.56 -411.25 C-4.64 -416.97, -1.45 -425.53, 1.5 -436.94 M-9.12 -409.33 C-5.42 -417.04, -3.31 -422.38, 2.39 -439.18" stroke="#862e9c" stroke-width="1" fill="none"></path></g></g><g stroke-linecap="round"><g transform="translate(133 497.4105271600064) rotate(0 305.54580094612203 0.6529028266596413)"><path d="M0.56 -0.64 C102.13 -0.79, 507.61 0.08, 609.33 0.12 M-0.61 1.64 C101.37 2.23, 509.83 1.87, 611.7 1.72" stroke="#862e9c" stroke-width="1" fill="none"></path></g><g transform="translate(133 497.4105271600064) rotate(0 305.54580094612203 0.6529028266596413)"><path d="M582.45 10.9 C591.84 10.39, 599.21 7.83, 610.68 1.31 M583.7 12.51 C591.87 8.18, 599.32 5.66, 612.67 2.46" stroke="#862e9c" stroke-width="1" fill="none"></path></g><g transform="translate(133 497.4105271600064) rotate(0 305.54580094612203 0.6529028266596413)"><path d="M582.43 -9.62 C592 -4.15, 599.38 -0.73, 610.68 1.31 M583.68 -8.01 C591.95 -6.67, 599.4 -3.52, 612.67 2.46" stroke="#862e9c" stroke-width="1" fill="none"></path></g></g><g stroke-linecap="round" transform="translate(227.97828969715783 484.00587600236656) rotate(0 16 14.5)"><path d="M12.63 -0.51 C15.6 -1.52, 20.07 0.13, 23.08 1.66 C26.1 3.18, 29.36 5.73, 30.74 8.64 C32.11 11.55, 32.28 16.01, 31.34 19.11 C30.4 22.2, 27.77 25.5, 25.08 27.2 C22.39 28.9, 18.54 29.78, 15.19 29.3 C11.85 28.82, 7.53 26.74, 4.99 24.33 C2.45 21.92, 0.45 17.79, -0.03 14.85 C-0.51 11.91, 0.12 9.26, 2.12 6.68 C4.12 4.1, 10.16 0.42, 11.97 -0.65 C13.79 -1.72, 12.89 -0.29, 13 0.26 M11.58 0.14 C14.4 -0.98, 17.92 0.22, 20.89 1.36 C23.85 2.49, 27.77 4.28, 29.4 6.96 C31.02 9.64, 31.47 14.45, 30.66 17.45 C29.84 20.44, 27.08 23.18, 24.5 24.93 C21.92 26.67, 18.45 27.93, 15.18 27.91 C11.91 27.89, 7.2 26.93, 4.89 24.81 C2.59 22.69, 1.93 18.4, 1.36 15.21 C0.78 12.02, -0.32 8.3, 1.44 5.68 C3.19 3.07, 10.48 0.3, 11.9 -0.48 C13.32 -1.26, 9.98 0.75, 9.95 1.01" stroke="none" stroke-width="0" fill="#7950f2"></path><path d="M8 2.22 C10.94 0.84, 16.36 0.04, 19.88 0.62 C23.41 1.2, 27.16 3.29, 29.15 5.69 C31.14 8.09, 32.07 11.75, 31.84 15.02 C31.61 18.29, 30.12 22.98, 27.76 25.32 C25.4 27.66, 21.18 28.77, 17.68 29.06 C14.17 29.35, 9.54 28.91, 6.74 27.07 C3.93 25.24, 1.85 21.13, 0.84 18.06 C-0.16 14.99, -0.76 11.35, 0.72 8.67 C2.19 6, 7.96 3.36, 9.71 2.01 C11.47 0.66, 11.21 0.51, 11.23 0.58 M13.36 1.28 C16.37 0.95, 20.33 0.79, 23.47 2.24 C26.61 3.69, 31.14 6.9, 32.2 9.98 C33.26 13.07, 31.45 17.66, 29.83 20.74 C28.2 23.82, 25.46 27.31, 22.47 28.47 C19.49 29.63, 15.03 28.82, 11.9 27.7 C8.77 26.58, 5.71 23.93, 3.67 21.76 C1.62 19.59, -0.72 17.52, -0.37 14.69 C-0.03 11.86, 3.31 7.05, 5.74 4.78 C8.18 2.51, 13.08 2.01, 14.24 1.06 C15.41 0.12, 12.74 -1.15, 12.76 -0.9" stroke="#000000" stroke-width="1" fill="none"></path></g><g stroke-linecap="round" transform="translate(463.480134473004 164.13507189381488) rotate(0 16 14.5)"><path d="M9.85 1.84 C12.71 0.38, 16.51 -1, 19.64 -0.14 C22.77 0.72, 26.65 4.19, 28.63 6.99 C30.6 9.78, 31.63 13.72, 31.48 16.61 C31.34 19.51, 30.2 22.34, 27.78 24.36 C25.36 26.39, 20.63 28.53, 16.98 28.76 C13.32 29, 8.56 27.53, 5.87 25.78 C3.17 24.04, 1.48 21.24, 0.82 18.28 C0.16 15.31, 0.06 10.76, 1.92 7.98 C3.78 5.21, 10.19 2.85, 11.97 1.64 C13.74 0.42, 12.44 0.71, 12.56 0.68 M19.53 0.77 C22.68 0.97, 25.2 2.01, 27.29 4.18 C29.39 6.35, 32.14 10.66, 32.09 13.79 C32.05 16.91, 29.09 20.53, 27.05 22.93 C25 25.32, 22.89 27.66, 19.81 28.16 C16.73 28.66, 11.57 27.24, 8.56 25.94 C5.56 24.63, 2.93 23.28, 1.78 20.34 C0.64 17.4, 0.39 11.25, 1.7 8.29 C3.01 5.33, 6.95 3.9, 9.66 2.56 C12.37 1.22, 16.6 0.5, 17.98 0.23 C19.35 -0.05, 17.76 0.44, 17.91 0.91" stroke="none" stroke-width="0" fill="#7950f2"></path><path d="M15.21 -0.12 C18.56 -0.63, 23.13 0.28, 25.74 2.07 C28.35 3.87, 30.04 7.52, 30.87 10.65 C31.71 13.78, 32.12 18.04, 30.75 20.87 C29.38 23.7, 25.93 26.41, 22.67 27.62 C19.42 28.83, 14.51 29.07, 11.21 28.12 C7.92 27.18, 4.72 24.7, 2.88 21.96 C1.04 19.23, -0.36 14.68, 0.17 11.73 C0.71 8.77, 3.22 6.02, 6.1 4.24 C8.97 2.45, 15.46 1.68, 17.42 1 C19.38 0.33, 18.1 0.09, 17.86 0.2 M10.27 1.9 C13.04 1.04, 17.67 1.41, 20.83 2.24 C23.98 3.07, 27.17 4.37, 29.17 6.86 C31.17 9.34, 33.39 13.82, 32.82 17.15 C32.26 20.48, 28.8 25.07, 25.8 26.82 C22.8 28.56, 17.97 28.1, 14.81 27.63 C11.64 27.15, 9.01 25.88, 6.82 23.96 C4.62 22.05, 2.35 19.08, 1.64 16.13 C0.93 13.17, 1.16 8.93, 2.55 6.21 C3.95 3.5, 8.41 0.6, 9.99 -0.14 C11.58 -0.89, 11.92 1.14, 12.05 1.74" stroke="#000000" stroke-width="1" fill="none"></path></g><g stroke-linecap="round" transform="translate(279.0769472582233 482.1088961820582) rotate(0 16 14.5)"><path d="M10.22 1.94 C13.12 0.33, 16.57 -1.04, 19.83 -0.24 C23.09 0.56, 27.78 3.87, 29.78 6.74 C31.78 9.6, 32.44 13.77, 31.83 16.94 C31.23 20.11, 28.73 23.84, 26.14 25.74 C23.55 27.64, 19.5 28.26, 16.29 28.34 C13.07 28.42, 9.6 27.87, 6.82 26.19 C4.05 24.52, 0.41 21.15, -0.38 18.27 C-1.16 15.38, 0.18 12.01, 2.14 8.88 C4.1 5.76, 9.13 0.84, 11.41 -0.49 C13.69 -1.82, 15.59 0.4, 15.82 0.89 M18.93 1.17 C22.38 2.04, 27.02 4.49, 29 6.86 C30.98 9.23, 31.2 12.56, 30.79 15.39 C30.39 18.22, 28.83 21.68, 26.56 23.82 C24.3 25.96, 20.29 27.77, 17.19 28.24 C14.08 28.7, 10.63 28.37, 7.92 26.61 C5.21 24.86, 2.32 20.4, 0.94 17.69 C-0.43 14.99, -1.49 13.02, -0.31 10.41 C0.86 7.79, 4.79 3.61, 7.97 2 C11.15 0.38, 16.93 0.69, 18.77 0.7 C20.6 0.71, 19.22 2.04, 19.01 2.06" stroke="none" stroke-width="0" fill="#7950f2"></path><path d="M9.44 0.45 C12.37 -1.07, 16.68 -0.52, 19.81 0.38 C22.93 1.29, 26.01 3.37, 28.19 5.87 C30.37 8.37, 33.13 12.3, 32.88 15.38 C32.63 18.46, 29.14 21.96, 26.67 24.34 C24.21 26.72, 21.38 29.36, 18.1 29.64 C14.82 29.93, 9.86 28.06, 7 26.06 C4.13 24.07, 1.85 20.73, 0.9 17.66 C-0.05 14.59, -0.33 10.53, 1.3 7.65 C2.93 4.78, 8.76 1.47, 10.69 0.42 C12.62 -0.63, 12.76 1.03, 12.88 1.35 M15 0.03 C18.34 -0.51, 22.43 0.49, 25.34 2.1 C28.25 3.71, 31.75 6.59, 32.47 9.69 C33.19 12.8, 31.2 17.6, 29.68 20.74 C28.16 23.89, 26.21 27.38, 23.34 28.57 C20.47 29.75, 15.91 28.77, 12.46 27.87 C9.02 26.97, 4.49 25.33, 2.67 23.19 C0.84 21.04, 1.1 17.96, 1.51 14.99 C1.92 12.03, 3.19 7.91, 5.13 5.38 C7.06 2.86, 11.72 0.54, 13.14 -0.17 C14.55 -0.88, 13.65 0.91, 13.64 1.11" stroke="#000000" stroke-width="1" fill="none"></path></g><g stroke-linecap="round" transform="translate(514.5787920340695 162.23809207350655) rotate(0 16 14.5)"><path d="M12.54 -0.14 C15.59 -1.23, 19.13 -0.48, 22.25 0.88 C25.38 2.25, 29.65 5.06, 31.3 8.07 C32.95 11.07, 33.29 15.92, 32.17 18.94 C31.05 21.95, 27.57 24.63, 24.58 26.15 C21.6 27.67, 17.68 28.26, 14.25 28.06 C10.83 27.86, 6.38 26.96, 4.03 24.95 C1.68 22.94, 0.39 19.02, 0.16 15.99 C-0.06 12.96, 0.42 9.51, 2.69 6.76 C4.96 4.01, 11.94 0.41, 13.8 -0.48 C15.66 -1.38, 14.04 0.97, 13.84 1.4 M13.2 -0.8 C16.17 -1.66, 19.57 0.33, 22.36 1.8 C25.15 3.27, 28.61 4.95, 29.91 8.03 C31.21 11.1, 31.17 17, 30.15 20.26 C29.14 23.52, 26.71 25.99, 23.81 27.57 C20.91 29.16, 15.85 30.21, 12.75 29.76 C9.64 29.3, 7.48 27.06, 5.18 24.85 C2.89 22.63, -0.86 19.83, -1.04 16.44 C-1.21 13.06, 1.84 7.39, 4.13 4.52 C6.41 1.66, 11.16 -0.1, 12.66 -0.73 C14.16 -1.36, 12.84 0.16, 13.12 0.74" stroke="none" stroke-width="0" fill="#7950f2"></path><path d="M10.72 0.71 C13.53 -0.51, 17.74 -1.01, 20.83 0.22 C23.91 1.45, 27.5 5.16, 29.24 8.11 C30.99 11.07, 31.89 14.98, 31.31 17.94 C30.72 20.91, 28.36 23.99, 25.72 25.9 C23.08 27.81, 18.9 29.49, 15.47 29.42 C12.05 29.34, 7.87 27.41, 5.19 25.43 C2.5 23.46, -0.23 20.51, -0.63 17.56 C-1.02 14.61, 0.41 10.61, 2.79 7.72 C5.18 4.83, 11.75 1.55, 13.69 0.22 C15.63 -1.12, 14.5 -0.44, 14.43 -0.29 M19.56 -0.92 C23.05 -0.69, 27.27 1.3, 29.22 4 C31.16 6.7, 31.4 12.06, 31.23 15.3 C31.07 18.54, 30.08 21.31, 28.23 23.42 C26.37 25.54, 23.65 27.11, 20.11 27.99 C16.57 28.86, 10.37 29.8, 6.98 28.68 C3.58 27.56, 0.84 24.37, -0.27 21.26 C-1.37 18.16, -0.85 13.4, 0.36 10.05 C1.57 6.7, 4.13 2.64, 6.99 1.15 C9.85 -0.33, 15.5 1.38, 17.51 1.14 C19.53 0.91, 18.74 -0.23, 19.07 -0.25" stroke="#000000" stroke-width="1" fill="none"></path></g><g stroke-linecap="round" transform="translate(329.09406119926064 482.9157754118198) rotate(0 16 14.5)"><path d="M9.34 1.99 C12.19 0.39, 17.47 -0.76, 20.63 -0.08 C23.78 0.6, 26.28 3.35, 28.26 6.06 C30.24 8.76, 32.53 13.16, 32.52 16.15 C32.5 19.14, 30.65 22.03, 28.17 24.01 C25.69 25.98, 21.24 27.75, 17.64 28.01 C14.03 28.27, 9.47 27.17, 6.55 25.56 C3.63 23.95, 0.98 21.24, 0.12 18.38 C-0.74 15.51, -0.1 11.42, 1.37 8.38 C2.85 5.35, 7.28 1.4, 8.94 0.15 C10.61 -1.1, 11.08 0.57, 11.37 0.91 M16.75 -0.76 C20.07 -0.7, 25.32 3.09, 28.06 5.33 C30.8 7.57, 33.14 9.7, 33.18 12.69 C33.22 15.68, 30.76 20.53, 28.3 23.26 C25.84 25.98, 21.75 28.41, 18.42 29.06 C15.09 29.7, 11.19 28.89, 8.31 27.14 C5.42 25.38, 2.55 21.58, 1.1 18.55 C-0.35 15.51, -1.59 11.73, -0.39 8.91 C0.82 6.1, 5.1 3.2, 8.35 1.66 C11.59 0.12, 17.43 -0.07, 19.08 -0.32 C20.73 -0.58, 18.34 -0.11, 18.26 0.14" stroke="none" stroke-width="0" fill="#7950f2"></path><path d="M13.4 0.38 C16.56 -0.43, 21.03 0.27, 23.94 1.94 C26.86 3.61, 29.75 7.38, 30.91 10.4 C32.07 13.43, 32.11 17.18, 30.9 20.1 C29.69 23.03, 26.7 26.63, 23.66 27.95 C20.62 29.27, 15.93 28.74, 12.65 28.03 C9.38 27.32, 5.99 25.97, 4.01 23.68 C2.04 21.39, 0.89 17.47, 0.78 14.3 C0.68 11.12, 1.07 6.84, 3.38 4.63 C5.68 2.42, 12.4 1.67, 14.63 1.05 C16.85 0.42, 16.62 0.89, 16.73 0.87 M13.35 -0.41 C16.56 -0.83, 21.79 1.9, 24.59 3.57 C27.4 5.24, 29.01 6.62, 30.19 9.6 C31.38 12.57, 32.74 18.59, 31.7 21.41 C30.67 24.23, 27.49 25.22, 23.99 26.52 C20.49 27.81, 14.16 29.79, 10.72 29.18 C7.27 28.56, 4.89 25.67, 3.31 22.81 C1.73 19.96, 0.84 15.29, 1.23 12.04 C1.63 8.79, 3.62 5.21, 5.67 3.3 C7.72 1.39, 12.05 1.28, 13.54 0.59 C15.02 -0.11, 14.3 -1.14, 14.58 -0.87" stroke="#000000" stroke-width="1" fill="none"></path></g><g stroke-linecap="round" transform="translate(564.5959059751067 163.0449713032682) rotate(0 16 14.5)"><path d="M12.82 -0.47 C15.83 -1.09, 20.66 0.94, 23.64 2.76 C26.61 4.59, 29.35 7.73, 30.66 10.47 C31.97 13.2, 32.69 16.43, 31.5 19.17 C30.31 21.92, 26.73 25.45, 23.51 26.96 C20.28 28.47, 15.41 28.73, 12.15 28.21 C8.88 27.68, 5.88 26.16, 3.92 23.79 C1.95 21.43, 0.27 16.97, 0.38 14.01 C0.49 11.05, 2.36 8.32, 4.58 6.03 C6.79 3.73, 11.69 1.3, 13.67 0.26 C15.65 -0.79, 16.22 -0.37, 16.44 -0.23 M14.21 -1.15 C17.38 -1.7, 23.13 0.17, 25.85 2.08 C28.58 3.99, 29.64 7.24, 30.57 10.32 C31.5 13.4, 32.73 17.79, 31.45 20.56 C30.16 23.32, 26.1 25.42, 22.87 26.9 C19.64 28.37, 15.35 30.35, 12.07 29.41 C8.78 28.46, 4.89 23.91, 3.15 21.23 C1.4 18.54, 1.42 16.22, 1.59 13.31 C1.76 10.4, 2.05 5.92, 4.17 3.77 C6.29 1.61, 12.4 0.73, 14.28 0.38 C16.17 0.03, 15.13 1.68, 15.48 1.66" stroke="none" stroke-width="0" fill="#7950f2"></path><path d="M18 -0.84 C21.16 -0.75, 24.59 1.52, 27.02 3.91 C29.44 6.29, 32.19 10.28, 32.58 13.46 C32.96 16.64, 31.49 20.5, 29.33 23.01 C27.16 25.51, 22.96 27.78, 19.58 28.47 C16.21 29.15, 12.11 28.64, 9.05 27.1 C6 25.57, 2.5 22, 1.25 19.26 C0.01 16.51, 0.44 13.3, 1.58 10.64 C2.73 7.97, 5.21 5.03, 8.12 3.27 C11.03 1.52, 17.17 0.47, 19.07 0.09 C20.97 -0.29, 19.67 0.69, 19.52 1.01 M13.48 1.27 C16.67 0.5, 21.05 0.31, 24.23 1.84 C27.42 3.37, 31.57 7.15, 32.6 10.43 C33.63 13.71, 32.15 18.9, 30.4 21.54 C28.64 24.17, 24.91 25.33, 22.07 26.26 C19.23 27.2, 16.3 27.79, 13.35 27.15 C10.4 26.5, 6.58 24.8, 4.39 22.37 C2.2 19.95, 0.35 15.76, 0.23 12.6 C0.11 9.44, 1.13 5.36, 3.68 3.4 C6.24 1.43, 13.84 1.07, 15.55 0.78 C17.25 0.5, 14.13 1.53, 13.89 1.68" stroke="#000000" stroke-width="1" fill="none"></path></g><g stroke-linecap="round" transform="translate(380.7334905703401 484.8041982616096) rotate(0 16 14.499999999999972)"><path d="M22.12 1.49 C25.22 2.64, 28.83 6.41, 30.24 9.05 C31.66 11.69, 31.38 14.4, 30.61 17.32 C29.85 20.24, 28.11 24.76, 25.63 26.57 C23.16 28.37, 19.27 28.42, 15.78 28.15 C12.29 27.87, 7.44 26.88, 4.72 24.92 C2 22.95, -0.19 19.46, -0.56 16.36 C-0.92 13.27, 0.51 9.12, 2.51 6.33 C4.51 3.54, 8.15 0.57, 11.43 -0.38 C14.71 -1.32, 20.11 0.34, 22.19 0.66 C24.28 0.99, 23.82 1.26, 23.94 1.56 M16.38 0.06 C19.48 0.13, 22.95 2.85, 25.65 5.14 C28.35 7.42, 31.71 10.94, 32.59 13.79 C33.47 16.63, 32.96 19.94, 30.93 22.21 C28.91 24.48, 23.9 26.61, 20.43 27.39 C16.96 28.18, 13.14 28, 10.11 26.91 C7.07 25.82, 3.95 23.27, 2.22 20.86 C0.48 18.45, -0.81 15.23, -0.3 12.45 C0.2 9.67, 2.55 6.37, 5.25 4.17 C7.94 1.97, 13.76 -0.05, 15.87 -0.74 C17.98 -1.43, 17.8 -0.5, 17.92 0.03" stroke="none" stroke-width="0" fill="#7950f2"></path><path d="M21.67 0.96 C24.61 1.94, 28.46 5.64, 29.99 8.38 C31.52 11.13, 31.62 14.37, 30.84 17.43 C30.06 20.5, 28.06 24.94, 25.31 26.75 C22.57 28.56, 17.6 28.46, 14.35 28.28 C11.11 28.11, 8.11 27.82, 5.86 25.7 C3.62 23.58, 1.55 18.67, 0.87 15.56 C0.18 12.45, -0.04 9.54, 1.74 7.04 C3.52 4.54, 7.44 1.41, 11.54 0.57 C15.64 -0.27, 23.46 1.3, 26.33 1.99 C29.2 2.69, 29.17 4.34, 28.77 4.74 M17.03 1.3 C20.25 0.86, 22.48 0.33, 25.08 2.31 C27.68 4.28, 31.85 9.72, 32.62 13.17 C33.39 16.62, 31.52 20.66, 29.71 23.02 C27.9 25.38, 25.22 26.55, 21.75 27.34 C18.27 28.12, 12.01 28.63, 8.86 27.73 C5.71 26.83, 4.05 24.82, 2.85 21.94 C1.65 19.06, 1.07 13.83, 1.68 10.47 C2.28 7.11, 4.08 3.72, 6.48 1.78 C8.87 -0.15, 14.51 -0.96, 16.05 -1.15 C17.59 -1.35, 15.73 0.13, 15.74 0.59" stroke="#000000" stroke-width="1" fill="none"></path></g><g stroke-linecap="round" transform="translate(616.2353353461863 164.93339415305792) rotate(0 16 14.5)"><path d="M19.45 -0.05 C22.69 0.55, 27.61 3, 29.82 5.72 C32.03 8.44, 33.19 13.16, 32.7 16.28 C32.21 19.4, 29.45 22.46, 26.87 24.42 C24.3 26.39, 20.66 27.69, 17.23 28.07 C13.8 28.45, 9.07 28.26, 6.31 26.69 C3.54 25.12, 1.52 21.59, 0.67 18.65 C-0.19 15.72, -0.4 12.11, 1.19 9.09 C2.77 6.08, 6.79 1.8, 10.2 0.59 C13.61 -0.62, 19.66 1.59, 21.64 1.82 C23.63 2.06, 22.29 1.94, 22.1 2 M17.55 0.31 C20.56 0.64, 25.06 1.51, 27.29 4.08 C29.52 6.65, 30.88 12.3, 30.94 15.71 C31 19.12, 29.82 22.22, 27.64 24.55 C25.45 26.87, 20.91 29.14, 17.83 29.67 C14.75 30.2, 12.12 29.19, 9.14 27.74 C6.16 26.29, 1.18 24.16, -0.06 20.96 C-1.31 17.77, 0.34 11.89, 1.67 8.56 C3 5.22, 5.01 2.29, 7.92 0.93 C10.82 -0.44, 17.07 0.26, 19.08 0.36 C21.1 0.46, 20.33 1.19, 20.02 1.52" stroke="none" stroke-width="0" fill="#7950f2"></path><path d="M13.7 -0.71 C16.82 -1.04, 21.55 1.23, 24.45 3.25 C27.35 5.27, 30.13 8.5, 31.08 11.42 C32.04 14.34, 31.6 18, 30.17 20.78 C28.74 23.56, 25.63 26.8, 22.52 28.09 C19.41 29.38, 14.94 29.26, 11.53 28.52 C8.12 27.77, 3.88 26.05, 2.04 23.62 C0.21 21.18, -0.07 17.17, 0.54 13.92 C1.15 10.66, 3.07 6.53, 5.72 4.11 C8.37 1.69, 14.27 0.08, 16.44 -0.63 C18.62 -1.34, 18.69 -0.48, 18.76 -0.16 M13.52 -0.52 C16.32 -1.01, 19.6 1.17, 22.42 2.69 C25.23 4.22, 28.77 6.09, 30.41 8.63 C32.05 11.17, 33.44 14.69, 32.27 17.93 C31.11 21.17, 26.68 25.99, 23.43 28.06 C20.18 30.14, 16.03 30.95, 12.78 30.37 C9.52 29.8, 6.13 27.29, 3.89 24.63 C1.65 21.96, -0.38 17.34, -0.65 14.37 C-0.91 11.41, 0 9.27, 2.28 6.83 C4.56 4.38, 11.13 0.81, 13.03 -0.31 C14.94 -1.44, 13.74 -0.07, 13.72 0.07" stroke="#000000" stroke-width="1" fill="none"></path></g><g stroke-linecap="round"><g transform="translate(284.3921462648284 542.4245323944102) rotate(0 160.15193614691066 -210.83198553671326)"><path d="M0.85 0.4 C54.19 -69.86, 267.17 -351.96, 320.46 -422.06 M-0.16 -0.44 C52.94 -70.54, 265.96 -350.81, 319.26 -421.08" stroke="#c92a2a" stroke-width="1" fill="none"></path></g></g><g stroke-linecap="round"><g transform="translate(158.48563171204592 176.41309785080372) rotate(0 24.81041132178035 0.6961178846977845)"><path d="M0.01 1.15 C8.29 1.63, 40.6 1.81, 48.77 1.69 M-1.45 0.71 C7.3 0.9, 42.84 -0.42, 51.07 -0.33" stroke="#862e9c" stroke-width="1" fill="none"></path></g></g><g stroke-linecap="round"><g transform="translate(480.0960870017544 191.42136190731028) rotate(0 -0.5529261276881812 153.55809413630132)"><path d="M-0.92 0.77 C-1.05 51.8, -0.39 255.63, -0.17 306.35" stroke="#862e9c" stroke-width="1.5" fill="none" stroke-dasharray="1.5 7"></path></g></g><g stroke-linecap="round"><g transform="translate(180.10650265589186 177.0074479447463) rotate(0 140.7379491135572 -0.1383247889578314)"><path d="M-1.11 0.76 C46.13 0.5, 235.47 -0.76, 282.59 -1.04" stroke="#862e9c" stroke-width="1.5" fill="none" stroke-dasharray="1.5 7"></path></g></g><g stroke-linecap="round"><g transform="translate(533.2473947387091 189.61962266198978) rotate(0 -0.16537576094265205 154.49621863261044)"><path d="M0.39 -0.16 C0.1 51.27, -0.52 257.62, -0.72 309.16" stroke="#862e9c" stroke-width="1.5" fill="none" stroke-dasharray="1.5 7"></path></g></g><g stroke-linecap="round"><g transform="translate(579.1917454943818 190.52049228465003) rotate(0 -0.24906965279467386 154.03812412995762)"><path d="M-0.69 0.98 C-0.51 51.97, 0.27 256.16, 0.19 307.1" stroke="#862e9c" stroke-width="1.5" fill="none" stroke-dasharray="1.5 7"></path></g></g><g stroke-linecap="round"><g transform="translate(629.6404443633553 194.13403845720725) rotate(0 0.3016482509673324 151.40378520677257)"><path d="M1.01 -0.56 C0.89 50.17, -0.33 252.73, -0.4 303.37" stroke="#862e9c" stroke-width="1.5" fill="none" stroke-dasharray="1.5 7"></path></g></g><g stroke-linecap="round"><g transform="translate(496.9157261133863 179.52893225008577) rotate(0 9.322626029489243 0.5623577874706314)"><path d="M1.14 0.77 C4.25 0.97, 15.14 0.61, 17.5 0.29" stroke="#862e9c" stroke-width="1.5" fill="none" stroke-dasharray="1.5 7"></path></g></g><g stroke-linecap="round"><g transform="translate(547.1291457787465 177.52039546347137) rotate(0 9.585305368979675 -0.2511023081839028)"><path d="M0.78 0.14 C3.99 0.03, 15.56 -0.56, 18.39 -0.64" stroke="#862e9c" stroke-width="1.5" fill="none" stroke-dasharray="1.5 7"></path></g></g><g stroke-linecap="round"><g transform="translate(596.8404312474534 177.7714625617982) rotate(0 9.823395238116746 0.3787173935539556)"><path d="M0.14 0.28 C3.44 0.18, 16.21 0.59, 19.51 0.47" stroke="#862e9c" stroke-width="1.5" fill="none" stroke-dasharray="1.5 7"></path></g></g><g transform="translate(45.59014830977617 10) rotate(0 322.5 19)"><text x="0" y="27" font-family="Virgil, Segoe UI Emoji" font-size="30.515124619870495px" fill="#000000" text-anchor="start" style="white-space: pre;" direction="ltr">Ilustrasi penggunaan regresi untuk prediksi</text></g></svg>